{
  "accessors": [
    {
      "bufferView": 2,
      "componentType": 5126,
      "count": 1031,
      "max": [
        0.09791653603315353,
        0.03230090066790581,
        0.060962047427892685
      ],
      "min": [
        -0.1020834669470787,
        -0.04321061819791794,
        -0.001033622189424932
      ],
      "type": "VEC3"
    },
    {
      "bufferView": 2,
      "byteOffset": 12372,
      "componentType": 5126,
      "count": 1031,
      "max": [
        0.9973416328430176,
        0.999999463558197,
        0.998531699180603
      ],
      "min": [
        -0.9990174770355225,
        -0.9975559115409851,
        -0.9998263120651245
      ],
      "type": "VEC3"
    },
    {
      "bufferView": 3,
      "componentType": 5126,
      "count": 1031,
      "max": [
        0.9997639656066895,
        0.9910603761672974,
        0.9822420477867126,
        1.0
      ],
      "min": [
        -0.8651639223098755,
        -0.9882471561431885,
        -0.9933838844299316,
        1.0
      ],
      "type": "VEC4"
    },
    {
      "bufferView": 1,
      "componentType": 5126,
      "count": 1031,
      "max": [
        0.9999017119407654,
        0.9676042199134827
      ],
      "min": [
        9.835220407694578e-05,
        9.835220407694578e-05
      ],
      "type": "VEC2"
    },
    {
      "bufferView": 1,
      "byteOffset": 8248,
      "componentType": 5126,
      "count": 1031,
      "max": [
        0.9999017119407654,
        0.9676042199134827
      ],
      "min": [
        9.835220407694578e-05,
        9.835220407694578e-05
      ],
      "type": "VEC2"
    },
    {
      "bufferView": 0,
      "componentType": 5125,
      "count": 5970,
      "type": "SCALAR"
    }
  ],
  "asset": {
    "extras": {
      "author": "Console Art Cybernetic (https://sketchfab.com/cacybernetic)",
      "license": "SKETCHFAB Standard (https://sketchfab.com/licenses)",
      "source": "https://sketchfab.com/3d-models/croissant-3d570199294d492184ddbb2476819ff4",
      "title": "Croissant"
    },
    "generator": "Sketchfab-17.14.0",
    "version": "2.0"
  },
  "bufferViews": [
    {
      "buffer": 0,
      "byteLength": 23880,
      "name": "floatBufferViews",
      "target": 34963
    },
    {
      "buffer": 0,
      "byteLength": 16496,
      "byteOffset": 23880,
      "byteStride": 8,
      "name": "floatBufferViews",
      "target": 34962
    },
    {
      "buffer": 0,
      "byteLength": 24744,
      "byteOffset": 40376,
      "byteStride": 12,
      "name": "floatBufferViews",
      "target": 34962
    },
    {
      "buffer": 0,
      "byteLength": 16496,
      "byteOffset": 65120,
      "byteStride": 16,
      "name": "floatBufferViews",
      "target": 34962
    }
  ],
  "buffers": [
    {
      "byteLength": 81616,
      "uri": "scene.bin"
    }
  ],
  "images": [
    {
      "uri": "textures/croissant_baseColor.jpeg"
    },
    {
      "uri": "textures/croissant_metallicRoughness.png"
    },
    {
      "uri": "textures/croissant_normal.png"
    }
  ],
  "materials": [
    {
      "doubleSided": true,
      "name": "croissant",
      "normalTexture": {
        "index": 2
      },
      "occlusionTexture": {
        "index": 1
      },
      "pbrMetallicRoughness": {
        "baseColorTexture": {
          "index": 0
        },
        "metallicRoughnessTexture": {
          "index": 1
        }
      }
    }
  ],
  "meshes": [
    {
      "name": "croissant_croissant_0",
      "primitives": [
        {
          "attributes": {
            "NORMAL": 1,
            "POSITION": 0,
            "TANGENT": 2,
            "TEXCOORD_0": 3,
            "TEXCOORD_1": 4
          },
          "indices": 5,
          "material": 0,
          "mode": 4
        }
      ]
    }
  ],
  "nodes": [
    {
      "children": [
        1
      ],
      "matrix": [
        1.0,
        0.0,
        0.0,
        0.0,
        0.0,
        2.220446049250313e-16,
        -1.0,
        0.0,
        0.0,
        1.0,
        2.220446049250313e-16,
        0.0,
        0.0,
        0.0,
        0.0,
        1.0
      ],
      "name": "Sketchfab_model"
    },
    {
      "children": [
        2
      ],
      "matrix": [
        0.009999999776482582,
        0.0,
        0.0,
        0.0,
        0.0,
        0.0,
        0.009999999776482582,
        0.0,
        0.0,
        -0.009999999776482582,
        0.0,
        0.0,
        0.0,
        0.0,
        0.0,
        1.0
      ],
      "name": "7b72f95cd1cc4572907914d887f5ef56.fbx"
    },
    {
      "children": [
        3
      ],
      "name": "RootNode"
    },
    {
      "children": [
        4
      ],
      "matrix": [
        100.0,
        0.0,
        0.0,
        0.0,
        0.0,
        -4.371139006309477e-06,
        -99.9999999999999,
        0.0,
        0.0,
        99.9999999999999,
        -4.371139006309477e-06,
        0.0,
        0.0,
        0.0,
        0.0,
        1.0
      ],
      "name": "croissant"
    },
    {
      "mesh": 0,
      "name": "croissant_croissant_0"
    }
  ],
  "samplers": [
    {
      "magFilter": 9729,
      "minFilter": 9987,
      "wrapS": 10497,
      "wrapT": 10497
    }
  ],
  "scene": 0,
  "scenes": [
    {
      "name": "Sketchfab_Scene",
      "nodes": [
        0
      ]
    }
  ],
  "textures": [
    {
      "sampler": 0,
      "source": 0
    },
    {
      "sampler": 0,
      "source": 1
    },
    {
      "sampler": 0,
      "source": 2
    }
  ]
}
